{"accessors" : [{"bufferView" : 0, "byteOffset" : 0, "componentType" : 5123, "count" : 33792, "type" : "SCALAR", "max" : [33791], "min" : [0]}, {"bufferView" : 1, "byteOffset" : 0, "componentType" : 5126, "count" : 33792, "type" : "VEC3", "max" : [1.2851619720458984, 1.1937631368637085, 1.4811477661132812], "min" : [-1.2851619720458984, -1.2583410739898682, -1.3164315223693848], "name" : "POSITION"}, {"bufferView" : 1, "byteOffset" : 12, "componentType" : 5126, "count" : 33792, "type" : "VEC3", "max" : [0.9997531771659851, 1.0000044107437134, 0.9999867677688599], "min" : [-0.9997531771659851, -0.9997701644897461, -1.0000040531158447], "name" : "NORMAL"}, {"bufferView" : 1, "byteOffset" : 24, "componentType" : 5126, "count" : 33792, "type" : "VEC2", "max" : [1.3674286603927612, 2.019040584564209], "min" : [-0.6233175992965698, -1.0945861339569092], "name" : "TEXCOORD_0"}, {"bufferView" : 1, "byteOffset" : 32, "componentType" : 5121, "normalized" : true, "count" : 33792, "type" : "VEC4", "name" : "COLOR_0"}, {"bufferView" : 0, "byteOffset" : 67584, "componentType" : 5123, "count" : 984, "type" : "SCALAR", "max" : [326], "min" : [0]}, {"bufferView" : 5, "byteOffset" : 0, "componentType" : 5126, "count" : 327, "type" : "VEC3", "max" : [9.538000106811523, 1.0443389415740967, 14.773512840270996], "min" : [-19.2513427734375, -1.9086514711380005, -14.846174240112305], "name" : "POSITION"}, {"bufferView" : 5, "byteOffset" : 12, "componentType" : 5126, "count" : 327, "type" : "VEC3", "max" : [0.7236182689666748, 1.0000044107437134, 0.9911500215530396], "min" : [-0.9219640493392944, -0.9985865354537964, -0.9814151525497437], "name" : "NORMAL"}, {"bufferView" : 5, "byteOffset" : 24, "componentType" : 5126, "count" : 327, "type" : "VEC2", "max" : [0.7654315233230591, 0.9408941268920898], "min" : [0.3198152184486389, 0.23512697219848633], "name" : "TEXCOORD_0"}, {"bufferView" : 0, "byteOffset" : 69552, "componentType" : 5123, "count" : 95232, "type" : "SCALAR", "max" : [16307], "min" : [0]}, {"bufferView" : 9, "byteOffset" : 0, "componentType" : 5126, "count" : 16308, "type" : "VEC3", "max" : [0.9476040601730347, 1.000379204750061, 1], "min" : [-0.9476306438446045, -1, -1.2608145475387573], "name" : "POSITION"}, {"bufferView" : 9, "byteOffset" : 12, "componentType" : 5126, "count" : 16308, "type" : "VEC3", "max" : [1.0000044107437134, 0.9999995231628418, 1.0000044107437134], "min" : [-1.0000042915344238, -1.0000044107437134, -0.9996606111526489], "name" : "NORMAL"}, {"bufferView" : 9, "byteOffset" : 24, "componentType" : 5126, "count" : 16308, "type" : "VEC2", "max" : [3.0366063117980957, 2.1129815578460693], "min" : [-2.405419111251831, -1.086998462677002], "name" : "TEXCOORD_0"}], "asset" : {"generator" : "Aspose.3D 21.3.1", "version" : "2.0"}, "buffers" : [{"uri" : "buffer.bin", "byteLength" : 15694188}], "bufferViews" : [{"buffer" : 0, "byteOffset" : 0, "byteLength" : 260016, "target" : 34963}, {"buffer" : 0, "byteOffset" : 260020, "byteLength" : 1216512, "byteStride" : 36, "target" : 34962}, {"buffer" : 0, "byteOffset" : 1476536, "byteLength" : 2912961}, {"buffer" : 0, "byteOffset" : 4389500, "byteLength" : 5985752}, {"buffer" : 0, "byteOffset" : 10375256, "byteLength" : 666345}, {"buffer" : 0, "byteOffset" : 11041604, "byteLength" : 31488, "byteStride" : 32, "target" : 34962}, {"buffer" : 0, "byteOffset" : 11073096, "byteLength" : 1108895}, {"buffer" : 0, "byteOffset" : 12181992, "byteLength" : 247575}, {"buffer" : 0, "byteOffset" : 12429568, "byteLength" : 217188}, {"buffer" : 0, "byteOffset" : 12646760, "byteLength" : 3047424, "byteStride" : 32, "target" : 34962}], "images" : [{"mimeType" : "image/jpeg", "bufferView" : 2}, {"mimeType" : "image/jpeg", "bufferView" : 3}, {"mimeType" : "image/jpeg", "bufferView" : 4}, {"mimeType" : "image/png", "bufferView" : 6}, {"mimeType" : "image/jpeg", "bufferView" : 7}, {"mimeType" : "image/jpeg", "bufferView" : 8}], "materials" : [{"pbrMetallicRoughness" : {"baseColorFactor" : [1, 1, 1, 1], "baseColorTexture" : {"index" : 1, "texCoord" : 0}, "metallicFactor" : 0, "roughnessFactor" : 1, "metallicRoughnessTexture" : {"index" : 2, "texCoord" : 0}}, "normalTexture" : {"index" : 0, "texCoord" : 0, "scale" : 1}, "emissiveFactor" : [0, 0, 0], "alphaMode" : "OPAQUE", "doubleSided" : true}, {"pbrMetallicRoughness" : {"baseColorFactor" : [1, 1, 1, 1], "baseColorTexture" : {"index" : 4, "texCoord" : 0}, "metallicFactor" : 0, "roughnessFactor" : 1, "metallicRoughnessTexture" : {"index" : 5, "texCoord" : 0}}, "normalTexture" : {"index" : 3, "texCoord" : 0, "scale" : 1}, "emissiveFactor" : [0, 0, 0], "alphaMode" : "OPAQUE", "doubleSided" : true}, {"pbrMetallicRoughness" : {"baseColorFactor" : [1, 1, 1, 1], "baseColorTexture" : {"index" : 1, "texCoord" : 0}, "metallicFactor" : 0, "roughnessFactor" : 1, "metallicRoughnessTexture" : {"index" : 2, "texCoord" : 0}}, "normalTexture" : {"index" : 0, "texCoord" : 0, "scale" : 1}, "emissiveFactor" : [0, 0, 0], "alphaMode" : "OPAQUE", "doubleSided" : true}], "meshes" : [{"primitives" : [{"attributes" : {"POSITION" : 1, "NORMAL" : 2, "TEXCOORD_0" : 3, "COLOR_0" : 4}, "indices" : 0, "material" : 0, "mode" : 4}]}, {"primitives" : [{"attributes" : {"POSITION" : 6, "NORMAL" : 7, "TEXCOORD_0" : 8}, "indices" : 5, "material" : 1, "mode" : 4}]}, {"primitives" : [{"attributes" : {"POSITION" : 10, "NORMAL" : 11, "TEXCOORD_0" : 12}, "indices" : 9, "material" : 2, "mode" : 4}]}], "nodes" : [{"matrix" : [0.6082589030265808, 0, 0, 0, 0, 0.11986962705850601, 0, 0, 0, 0, 0.6082589030265808, 0, 0.040425557643175125, 2.270876169204712, 0.040494322776794434, 1], "mesh" : 0, "name" : "Cube.003"}, {"matrix" : [0.051250440767492016, 0.018502922335841148, -0.052869243540164985, 0, -0.13433402514343146, 0.7618460575257049, 0.13640635209502205, 0, 0.055158976864659356, 0.00014337022069607676, 0.053520240906043605, 0, 0.042375802993774414, 1.3277878761291504, 0.035219043493270874, 1], "mesh" : 1, "name" : "Cube.002"}, {"matrix" : [0.8742984533309937, 0, 0, 0, 0, 0.8742984533309937, 0, 0, 0, 0, 0.8742984533309937, 0, 0.040425557643175125, 2.932614803314209, 0.0009294017218053341, 1], "mesh" : 2, "name" : "Cube"}], "samplers" : [{"magFilter" : 9729, "minFilter" : 9729, "wrapS" : 10497, "wrapT" : 10497}, {"magFilter" : 9729, "minFilter" : 9729, "wrapS" : 10497, "wrapT" : 10497}, {"magFilter" : 9729, "minFilter" : 9729, "wrapS" : 10497, "wrapT" : 10497}, {"magFilter" : 9729, "minFilter" : 9729, "wrapS" : 10497, "wrapT" : 10497}, {"magFilter" : 9729, "minFilter" : 9729, "wrapS" : 10497, "wrapT" : 10497}, {"magFilter" : 9729, "minFilter" : 9729, "wrapS" : 10497, "wrapT" : 10497}], "scene" : 0, "scenes" : [{"nodes" : [0, 1, 2]}], "textures" : [{"sampler" : 0, "source" : 0}, {"sampler" : 1, "source" : 1}, {"sampler" : 2, "source" : 2}, {"sampler" : 3, "source" : 3}, {"sampler" : 4, "source" : 4}, {"sampler" : 5, "source" : 5}]}